<mxfile host="app.diagrams.net" modified="2024-01-06T17:21:54.479Z" agent="Mozilla/5.0 (Windows NT 10.0; Win64; x64) AppleWebKit/537.36 (KHTML, like Gecko) Chrome/120.0.0.0 Safari/537.36" version="22.1.16" etag="KMJLVIXkMD-QHkDsl06x" type="github">
  <diagram name="Page-1" id="XVmd0VjjCgByRrAAHHx1">
    <mxGraphModel>
      <root>
        <mxCell id="0" />
        <mxCell id="1" parent="0" />
      </root>
    </mxGraphModel>
  </diagram>
</mxfile>
